<?xml version="1.0" encoding="iso-8859-1"?>
<!-- Generator: Adobe Illustrator 18.0.0, SVG Export Plug-In . SVG Version: 6.00 Build 0)  -->
<!DOCTYPE svg PUBLIC "-//W3C//DTD SVG 1.1//EN" "http://www.w3.org/Graphics/SVG/1.1/DTD/svg11.dtd">
<svg version="1.1" id="Capa_1" xmlns="http://www.w3.org/2000/svg" xmlns:xlink="http://www.w3.org/1999/xlink" x="0px" y="0px"
	 viewBox="0 0 280 280" style="enable-background:new 0 0 280 280;" xml:space="preserve" fill="blanchedalmond">
<g>
	<path d="M183.028,43.028H96.972C43.501,43.028,0,86.529,0,140s43.501,96.972,96.972,96.972h86.057
		C236.499,236.972,280,193.471,280,140S236.499,43.028,183.028,43.028z M183.028,218.972H96.972C53.427,218.972,18,183.545,18,140
		s35.427-78.972,78.972-78.972h86.057C226.573,61.028,262,96.455,262,140S226.573,218.972,183.028,218.972z"/>
	<path d="M177.029,129.326l-42.208-35.29c-9.058-7.573-22.838-1.133-22.838,10.674v70.58c0,11.807,13.78,18.248,22.838,10.674
		l42.208-35.29C183.681,145.113,183.681,134.887,177.029,129.326z"/>
</g>
</svg>
